<?xml version="1.0" standalone="no"?>
<!DOCTYPE svg PUBLIC "-//W3C//DTD SVG 20010904//EN"
 "http://www.w3.org/TR/2001/REC-SVG-20010904/DTD/svg10.dtd">
<svg version="1.0" xmlns="http://www.w3.org/2000/svg"
 width="300.000000pt" height="300.000000pt" viewBox="0 0 300.000000 300.000000"
 preserveAspectRatio="xMidYMid meet">
<metadata>
Created by potrace 1.10, written by Peter Selinger 2001-2011
</metadata>
<g transform="translate(0.000000,300.000000) scale(0.100000,-0.100000)"
fill="#000000" stroke="none">
<path d="M1482 2799 c-10 -16 -10 -24 -1 -35 27 -32 59 0 36 36 -15 25 -19 25
-35 -1z"/>
<path d="M1482 2733 c-10 -4 -10 -8 -1 -19 6 -8 10 -14 8 -14 -2 -1 -47 -3
-99 -5 -167 -7 -383 -76 -543 -173 -290 -174 -495 -448 -584 -779 -25 -91 -27
-114 -27 -303 -1 -204 7 -268 44 -364 18 -49 21 -22 5 49 -9 37 -14 73 -11 80
2 7 0 17 -5 22 -14 14 -16 317 -2 403 7 41 24 113 38 160 28 95 131 311 169
356 201 235 242 271 411 368 150 86 327 142 500 160 22 2 47 7 56 10 11 5 18
1 22 -13 4 -15 13 -21 35 -21 17 0 37 -9 48 -21 19 -22 19 -22 -6 -13 -14 5
-40 8 -58 8 -23 0 -31 3 -28 13 9 23 -2 14 -33 -29 -17 -23 -31 -52 -31 -65 0
-23 1 -23 30 -8 39 20 127 19 168 -3 l32 -18 -112 0 c-154 0 -214 -22 -175
-63 9 -10 9 -12 0 -7 -18 10 -85 -55 -116 -113 -18 -33 -30 -72 -34 -115 -3
-37 -10 -66 -14 -66 -5 0 -9 -7 -9 -15 0 -8 -5 -15 -12 -15 -6 0 -9 -3 -5 -6
3 -4 41 3 84 15 135 36 255 48 361 35 107 -14 230 -42 238 -55 9 -15 -16 -119
-29 -119 -7 0 -6 -4 3 -10 13 -8 12 -10 -2 -10 -10 0 -18 5 -18 10 0 6 -13 10
-30 10 -32 0 -41 16 -12 23 13 4 11 5 -5 6 -23 1 -30 22 -17 55 8 20 33 21 40
1 4 -8 10 -15 15 -15 6 0 5 9 -1 20 -6 11 -19 20 -30 20 -20 0 -46 -36 -42
-57 3 -14 -59 -19 -72 -6 -3 4 -15 7 -26 8 -17 1 -20 -5 -20 -42 0 -36 -3 -43
-20 -43 -15 0 -20 7 -20 29 0 16 -9 39 -19 52 -19 23 -19 24 -40 5 -13 -12
-21 -31 -21 -53 0 -26 -4 -33 -20 -33 -16 0 -20 7 -20 34 0 28 -4 35 -22 39
l-23 4 22 2 c12 0 27 10 33 20 5 11 20 23 31 26 16 5 18 9 9 15 -8 5 1 8 23 7
20 0 34 -3 32 -6 -12 -11 60 -41 99 -41 40 0 44 2 39 21 -3 12 0 24 6 29 18
11 -50 40 -77 33 -12 -3 -22 -13 -22 -22 0 -12 2 -13 9 -3 5 8 21 12 37 10 23
-2 30 -9 32 -30 3 -25 0 -28 -27 -28 -16 0 -36 6 -43 13 -7 7 -17 15 -23 16
-5 2 -9 6 -8 11 1 4 -8 17 -21 29 -20 19 -24 20 -42 6 -15 -12 -15 -14 -2 -9
9 3 24 2 33 -3 11 -7 7 -9 -18 -10 -22 -1 -43 -10 -60 -27 -31 -31 -81 -35
-92 -8 -6 15 -8 14 -16 -5 -11 -29 -35 -30 -42 -2 -9 32 -51 22 -55 -13 -4
-31 -18 -37 -25 -10 -4 13 -5 11 -6 -5 -1 -27 6 -28 79 -8 30 8 75 14 100 13
29 -1 35 -2 18 -5 -16 -2 -28 -9 -28 -14 0 -5 -17 -10 -37 -10 -34 -2 -34 -2
-8 -6 42 -5 72 -22 78 -43 4 -15 -7 -18 -86 -24 -142 -10 -347 -7 -347 4 0 7
32 8 93 4 103 -7 330 4 322 16 -6 10 -115 10 -115 -1 0 -5 -8 -9 -17 -9 -15 0
-16 2 -3 10 13 8 12 10 -2 10 -10 0 -18 -4 -18 -9 0 -6 -9 -9 -20 -8 -11 1
-20 4 -20 8 0 4 -14 3 -32 -2 -17 -5 -32 -8 -33 -6 -22 53 -20 52 -118 49 -61
-3 -97 -9 -108 -18 -8 -8 -22 -14 -29 -14 -10 0 -9 -5 3 -18 10 -10 17 -24 17
-30 0 -7 41 -10 133 -8 147 3 163 1 146 -20 -8 -10 -7 -17 5 -29 15 -15 16
-13 16 19 l0 36 79 0 c43 0 106 3 140 6 l61 7 0 33 c0 37 11 48 40 39 15 -5
20 -15 20 -41 0 -32 2 -34 38 -35 20 -1 48 -3 62 -5 14 -2 115 -6 225 -8 110
-2 205 -5 210 -6 26 -6 42 2 51 27 8 25 6 31 -24 57 -30 26 -40 29 -95 28 -54
-2 -60 0 -44 12 9 7 17 17 17 22 0 5 11 9 24 9 24 0 30 -14 11 -27 -5 -4 0 -8
13 -8 20 0 22 4 16 23 -4 12 -11 25 -16 28 -5 3 -6 17 -3 31 4 16 1 37 -8 54
l-15 28 -7 -45 c-9 -61 -28 -99 -69 -137 -20 -19 -36 -38 -36 -43 0 -5 -14 -9
-31 -9 -24 0 -29 4 -25 18 2 9 8 37 11 62 4 25 12 48 18 52 21 13 -215 68
-294 68 -21 0 -39 5 -39 10 0 20 138 3 249 -31 35 -10 66 -17 69 -14 3 3 1 5
-5 5 -6 0 -13 27 -16 60 -8 77 -54 167 -107 212 -22 19 -40 42 -40 50 0 8 -13
24 -29 36 -16 12 -41 46 -56 77 -14 31 -32 58 -39 61 -8 3 -12 14 -9 25 4 14
11 18 22 14 9 -4 34 -9 56 -12 36 -4 199 -37 235 -47 81 -23 185 -70 305 -138
212 -120 437 -402 520 -653 78 -232 85 -436 29 -750 -11 -66 16 5 37 96 30
124 32 352 6 479 -57 275 -164 477 -352 665 -240 240 -547 371 -879 375 -5 0
-3 6 3 13 18 22 -4 33 -37 20z m91 -151 c11 -12 19 -23 16 -26 -2 -2 -27 1
-55 7 -42 8 -58 7 -93 -6 -46 -19 -51 -12 -19 28 19 25 26 27 75 23 38 -3 61
-11 76 -26z m52 -90 c16 -5 31 -14 33 -21 3 -10 0 -10 -15 -2 -11 5 -48 15
-82 20 -57 9 -79 8 -201 -14 -27 -5 -31 -4 -18 4 42 27 202 34 283 13z m-65
-23 c0 -5 4 -8 9 -5 14 9 26 -13 55 -92 14 -41 30 -81 35 -90 4 -9 11 -32 14
-49 6 -28 4 -33 -13 -33 -16 0 -20 7 -21 33 -1 17 -5 46 -9 62 -6 19 -7 8 -3
-31 5 -61 5 -62 -19 -57 -24 5 -26 10 -32 84 -3 43 -11 89 -16 101 -10 23 -10
23 -6 -2 3 -14 8 -60 12 -103 7 -77 7 -77 -17 -75 -14 2 -26 11 -29 22 -8 29
-28 31 -35 3 -5 -18 -13 -24 -32 -24 l-26 0 6 87 c4 48 9 96 13 106 5 18 5 18
-6 1 -6 -10 -14 -58 -17 -106 -5 -84 -7 -89 -29 -94 -21 -4 -24 0 -24 27 0 18
7 58 15 90 9 33 13 61 11 63 -7 8 -27 -68 -33 -129 -4 -45 -10 -57 -25 -61
-18 -5 -19 -2 -13 36 4 22 20 73 36 111 16 39 29 73 29 76 0 3 4 -1 8 -8 6 -9
12 -5 20 13 7 15 8 24 2 20 -5 -3 -10 1 -10 10 0 11 5 15 15 12 8 -4 17 -2 20
3 8 14 115 13 115 -1z m-165 -8 c-3 -5 -1 -12 5 -16 5 -3 10 -11 10 -18 0 -6
-7 -2 -16 9 -8 10 -13 14 -9 7 3 -7 -6 -35 -20 -64 -15 -28 -35 -83 -45 -123
-10 -39 -19 -59 -19 -45 -1 37 34 147 60 189 13 20 15 29 6 22 -22 -19 -59
-109 -72 -176 -9 -52 -14 -61 -38 -67 -31 -8 -34 2 -17 60 5 19 7 39 3 44 -10
16 -21 -22 -22 -69 -1 -29 -6 -44 -17 -48 -15 -6 -16 0 -10 49 8 70 42 138 95
190 23 21 41 35 41 30 0 -4 8 -1 18 7 14 13 33 23 50 27 2 1 1 -3 -3 -8z m292
-37 c82 -67 119 -144 114 -241 -2 -46 -18 -21 -24 36 -5 64 -61 186 -80 174
-6 -3 -7 -1 -3 5 3 6 -2 16 -13 21 -15 9 -12 -1 15 -46 18 -31 36 -65 40 -75
3 -10 9 -16 14 -13 4 3 8 -5 8 -18 0 -12 3 -39 7 -59 7 -37 7 -37 -21 -29 -24
6 -30 14 -35 47 -9 46 -47 151 -58 159 -5 2 2 -21 15 -53 23 -57 45 -169 25
-127 -5 11 -10 29 -10 39 -1 11 -12 47 -25 80 -13 34 -26 70 -28 81 -1 11 -9
26 -15 33 -7 7 -13 18 -13 23 0 17 42 -1 87 -37z m-202 -234 c4 -6 -14 -10
-47 -10 -45 0 -166 -23 -247 -46 -15 -5 -22 -3 -18 3 19 31 297 78 312 53z
m-207 -123 c2 -12 -3 -17 -17 -17 -23 0 -24 1 -15 25 8 19 28 15 32 -8z m772
-43 c-59 -8 -138 -8 -133 -1 2 4 39 6 81 6 42 -1 66 -3 52 -5z m-362 -11 c-15
-2 -42 -2 -60 0 -18 2 -6 4 27 4 33 0 48 -2 33 -4z m-604 -13 c40 -15 31 -29
-16 -24 -62 6 -78 6 -131 0 -36 -4 -48 -3 -45 6 3 7 15 15 29 19 37 11 135 10
163 -1z m1018 -8 c13 -13 5 -16 -44 -12 -20 1 -28 -3 -28 -14 0 -13 -13 -16
-72 -15 -82 1 -80 4 6 14 40 5 55 10 45 16 -8 5 -22 6 -32 3 -33 -10 -87 -12
-87 -3 0 19 47 29 123 26 43 -2 83 -9 89 -15z m-392 -1 c0 -5 -18 -8 -39 -6
-21 1 -44 -1 -51 -5 -12 -7 95 -19 204 -22 49 -1 42 -3 -34 -7 -52 -3 -96 -3
-98 2 -2 4 -25 7 -51 7 -40 0 -47 3 -47 20 0 18 7 20 58 20 32 0 58 -4 58 -9z"/>
<path d="M1297 2398 c-48 -65 -60 -89 -50 -99 6 -6 16 5 29 33 10 24 23 46 29
50 5 4 6 8 1 8 -5 0 -1 9 9 20 10 11 15 20 12 20 -3 0 -17 -15 -30 -32z"/>
<path d="M992 2180 c-16 -25 -15 -50 1 -50 8 0 9 -3 1 -8 -11 -7 -34 -45 -34
-56 0 -15 18 -4 23 14 3 11 11 20 19 20 10 0 10 -3 -2 -11 -13 -9 -12 -10 2
-5 21 6 30 -6 22 -29 -5 -12 -17 -16 -45 -14 -21 2 -41 0 -45 -4 -4 -4 28 -7
71 -7 l78 0 -21 23 c-12 13 -22 29 -22 35 0 7 -5 12 -11 12 -6 0 -10 12 -8 28
1 15 -2 37 -7 49 -9 22 -10 22 -22 3z"/>
<path d="M1336 2125 c-17 -13 -17 -15 -4 -15 9 0 20 5 23 10 9 14 49 12 64 -2
10 -11 11 -10 6 5 -9 21 -62 23 -89 2z"/>
<path d="M1165 2071 c3 -18 5 -42 5 -52 0 -11 4 -19 10 -19 10 0 3 51 -12 85
-6 15 -7 11 -3 -14z"/>
<path d="M1786 2052 c-3 -5 -20 -7 -38 -5 l-33 3 34 -11 c23 -7 37 -7 44 0 6
6 8 13 5 16 -3 4 -8 2 -12 -3z"/>
<path d="M1480 1975 c0 -18 5 -25 20 -25 15 0 20 7 20 25 0 18 -5 25 -20 25
-15 0 -20 -7 -20 -25z"/>
<path d="M1466 1925 c-11 -8 -33 -15 -50 -15 -16 0 -26 -3 -23 -7 10 -9 207
-10 207 0 0 4 -8 7 -17 7 -10 0 -31 7 -47 15 -35 18 -46 18 -70 0z m61 -8 c21
-11 19 -12 -22 -12 -39 0 -43 2 -28 13 20 15 22 15 50 -1z"/>
<path d="M1234 1915 c-6 -16 9 -34 29 -35 13 0 8 27 -8 40 -12 10 -16 9 -21
-5z"/>
<path d="M980 1900 c-10 -18 -8 -20 30 -20 31 0 40 4 40 18 0 13 -2 14 -9 4
-7 -11 -9 -11 -14 2 -9 22 -34 20 -47 -4z"/>
<path d="M1743 1913 c-22 -8 -14 -30 10 -28 12 1 22 8 22 15 0 15 -14 21 -32
13z"/>
<path d="M1982 1908 c-20 -20 -14 -28 23 -28 39 0 43 6 18 26 -22 17 -26 17
-41 2z"/>
<path d="M1458 1873 c-27 -8 -48 -18 -48 -22 0 -4 -15 -6 -32 -5 -18 2 -25 1
-15 -2 9 -3 17 -13 18 -22 0 -11 2 -12 6 -4 11 27 18 9 15 -37 -3 -33 0 -50
10 -53 10 -4 12 7 10 53 -4 55 -3 58 27 73 39 21 59 20 97 -3 28 -17 31 -24
32 -70 1 -37 -2 -51 -12 -51 -25 0 -27 -30 -3 -39 25 -10 25 -10 -71 -36 -34
-9 -67 -13 -74 -9 -6 4 -145 9 -307 11 -163 2 -300 4 -306 4 -5 1 -13 1 -17 0
-4 0 -10 8 -13 19 -4 11 -11 20 -16 20 -6 0 -8 -4 -5 -9 3 -4 -5 -6 -18 -4
-13 3 -27 0 -30 -6 -5 -7 5 -11 28 -11 20 0 36 -4 36 -8 0 -12 -80 -9 -81 3
-2 16 -17 -38 -17 -60 0 -11 2 -14 5 -7 7 19 103 16 103 -3 0 -11 -12 -15 -42
-16 -24 -1 -56 -3 -72 -5 -32 -3 -72 35 -93 90 -12 31 -12 31 -12 4 -1 -16
-11 -34 -26 -46 -33 -26 -32 -37 0 -16 22 14 30 15 50 4 39 -21 30 -30 -30
-30 -43 0 -56 -4 -65 -19 -14 -27 -13 -31 10 -31 14 0 20 -7 20 -21 0 -17 -5
-20 -32 -16 -27 3 -35 -1 -45 -21 -7 -13 -13 -30 -13 -36 0 -21 -54 -96 -70
-97 -10 0 -11 -2 -2 -6 29 -12 1 -163 -30 -163 -5 0 -8 -11 -8 -25 l0 -25 160
0 c218 0 212 -19 -7 -23 l-168 -3 169 -2 168 -2 -4 -30 c-3 -17 -1 -30 4 -30
4 0 8 14 8 30 0 27 3 30 30 30 23 0 30 4 30 20 0 16 -7 20 -30 20 -16 0 -30 5
-30 11 0 8 -4 8 -14 0 -14 -12 -290 -10 -302 2 -13 13 9 27 44 28 l37 1 -30 8
c-20 5 9 8 83 9 61 0 112 -3 112 -8 0 -13 66 -23 144 -22 47 1 72 -3 78 -11 6
-10 8 -9 8 4 0 12 -10 18 -37 21 -21 2 31 4 115 5 104 1 152 6 152 13 0 8 -34
10 -114 6 -96 -4 -114 -3 -109 9 4 12 35 13 177 9 94 -3 187 -8 206 -11 19 -3
76 -7 125 -8 82 -3 85 -3 25 4 l-65 7 85 0 c47 0 91 -5 99 -11 9 -7 12 -7 9
-1 -4 7 36 11 115 11 101 1 110 0 52 -6 l-70 -6 78 -2 c63 -2 77 1 77 13 0 12
-18 15 -103 15 -65 0 -107 4 -115 12 -8 8 -15 8 -24 0 -15 -12 -238 -21 -238
-10 0 4 10 14 22 22 32 23 424 24 454 1 12 -9 43 -14 87 -15 37 0 67 -3 67 -7
0 -5 -31 -7 -70 -5 -48 3 -70 0 -70 -8 0 -8 23 -10 83 -5 156 12 360 11 364
-2 3 -8 -10 -11 -41 -9 -25 2 -46 0 -46 -5 0 -5 37 -10 83 -11 l82 -2 -102 -5
c-88 -5 -99 -8 -78 -18 14 -6 23 -7 19 -2 -10 17 15 9 26 -8 10 -16 11 -16 6
-1 -4 14 6 17 70 20 41 2 74 -1 74 -5 0 -5 17 -7 38 -5 31 2 37 0 34 -14 -3
-17 11 -18 163 -18 l165 0 0 25 c0 14 -3 25 -7 25 -5 0 -17 15 -27 33 -21 35
-23 117 -3 129 8 5 7 8 -3 8 -22 0 -56 40 -64 75 -10 42 -29 85 -38 85 -14 0
-8 -37 7 -50 26 -22 16 -32 -25 -28 -29 2 -40 0 -40 -10 0 -11 -17 -13 -75
-10 -41 2 -75 0 -75 -3 0 -4 -18 -6 -40 -6 -22 0 -40 4 -40 8 0 5 -16 9 -35 9
-19 0 -35 -4 -35 -10 0 -5 -6 -10 -14 -10 -8 0 -16 -4 -18 -10 -2 -7 -188 -13
-293 -8 -11 1 -45 0 -75 -1 -81 -4 -90 -2 -90 14 0 11 11 15 39 15 22 0 43 5
46 10 4 6 -13 10 -44 10 -39 0 -51 -4 -51 -15 0 -13 -27 -15 -180 -15 -148 0
-180 2 -180 14 0 10 -17 15 -62 18 -35 2 -65 2 -68 0 -12 -9 30 -22 73 -22
l47 0 -1 -52 -2 -53 -7 40 c-4 22 -8 32 -9 22 -1 -17 -9 -18 -76 -15 -66 3
-75 1 -75 -14 0 -11 -7 -18 -17 -18 -15 0 -16 2 -3 10 18 11 7 25 -14 17 -23
-9 -8 -42 20 -43 17 -1 24 3 24 17 0 17 8 19 70 19 56 0 70 -3 70 -15 0 -8 -4
-15 -10 -15 -5 0 -10 -6 -10 -12 0 -10 -23 -13 -85 -12 -47 1 -88 -3 -92 -8
-3 -7 16 -8 53 -4 33 3 75 2 94 -3 32 -8 29 -9 -32 -11 -90 -3 -87 -3 -98 -20
-7 -11 -10 -11 -10 -2 0 10 -25 13 -107 12 -60 -1 -123 -1 -140 -1 l-33 1 0
70 c0 40 4 70 10 70 6 0 10 -6 10 -13 0 -10 16 -12 65 -9 57 4 64 2 59 -12 -3
-9 -2 -16 4 -16 6 0 17 -3 26 -6 11 -4 16 -1 16 10 0 9 -6 17 -12 18 -7 1 23
5 67 8 l80 7 -85 0 c-206 2 -210 2 -210 18 0 14 22 16 158 14 137 -1 157 1
160 15 3 14 -14 16 -147 16 -94 0 -151 -4 -151 -10 0 -6 -27 -10 -60 -10 -33
0 -60 -4 -60 -9 0 -5 -21 -9 -46 -8 -37 0 -47 4 -54 21 -7 17 -9 18 -9 4 -1
-14 -10 -18 -40 -18 -22 0 -46 -3 -55 -6 -12 -5 -16 1 -17 22 -1 24 -2 25 -6
7 -4 -20 -10 -23 -51 -21 l-47 1 45 7 45 7 -37 1 c-31 2 -38 6 -38 23 0 18 4
20 38 15 20 -3 191 -8 378 -11 l342 -6 0 41 c1 41 -9 49 -38 30 -12 -8 -11
-10 7 -10 16 0 21 -6 20 -20 -1 -14 -8 -20 -25 -20 -23 0 -24 2 -20 50 4 40 3
48 -8 39 -7 -6 -10 -17 -7 -25 3 -8 0 -14 -7 -14 -6 0 -10 10 -8 22 5 34 -52
58 -112 48 l-45 -7 38 -2 c23 -1 40 -7 43 -16 4 -8 16 -15 28 -14 20 0 20 1
-3 10 -31 12 -21 22 13 13 24 -6 26 -10 26 -58 l0 -51 -44 -1 c-36 -1 -45 2
-49 17 -3 11 -2 19 2 19 6 0 7 33 2 47 -1 1 -13 -2 -28 -7 -26 -9 -27 -9 -9 5
11 8 15 15 9 15 -17 0 -36 -27 -23 -35 5 -3 10 -17 10 -30 0 -14 7 -26 18 -29
9 -2 -12 -2 -48 1 -36 3 -73 6 -82 6 -21 1 -24 13 -5 20 6 3 -2 6 -20 6 -25 1
-33 6 -36 24 -4 19 -4 19 -6 2 -1 -18 -9 -20 -66 -22 -63 -3 -65 -2 -65 22 0
25 0 25 108 27 l107 2 -110 6 c-101 5 -105 6 -45 10 69 5 164 -2 193 -15 12
-5 17 -3 17 9 0 9 5 16 12 16 6 0 8 3 5 6 -4 4 -40 6 -82 5 -72 -2 -75 -1 -75
21 0 22 -3 23 -57 20 -43 -3 -55 -1 -47 8 7 7 91 12 260 13 218 3 524 -5 454
-11 -15 -1 -20 -5 -13 -10 16 -10 -20 -52 -44 -51 -16 0 -16 1 2 9 16 7 12 9
-20 11 l-40 2 45 7 c43 7 42 7 -22 8 -39 1 -68 6 -68 12 0 7 -7 7 -20 0 -12
-6 -30 -8 -40 -5 -12 4 -20 2 -20 -4 0 -6 17 -11 38 -12 l37 -1 -30 -9 c-16
-5 -36 -7 -42 -4 -7 2 -13 0 -13 -5 0 -15 38 -12 77 7 32 15 37 15 62 0 23
-14 26 -22 29 -83 3 -56 1 -66 -12 -61 -9 4 -18 2 -21 -3 -9 -14 38 -17 61 -2
21 12 125 34 170 34 17 0 20 6 19 41 -1 26 -8 44 -21 54 -17 12 -21 11 -36 -8
-10 -12 -18 -36 -18 -55 0 -31 -3 -34 -29 -34 -16 0 -36 -3 -45 -6 -13 -5 -16
2 -16 45 0 41 5 56 30 84 16 19 47 39 70 46 38 11 45 10 85 -14 25 -14 49 -35
55 -46 17 -30 25 -119 11 -119 -6 0 -12 21 -13 53 l-2 52 -3 -49 c-4 -45 -6
-48 -29 -43 -13 2 -24 0 -24 -4 0 -5 11 -9 25 -9 14 0 42 -7 63 -16 23 -10 60
-16 100 -14 38 1 62 -3 62 -9 0 -6 4 -11 9 -11 5 0 7 8 5 18 -5 16 17 17 347
20 343 2 353 3 356 22 2 14 -3 20 -17 20 -29 0 -27 38 2 42 23 3 39 38 18 38
-16 0 -75 71 -75 91 0 9 -3 21 -7 25 -5 4 -8 -3 -8 -16 0 -13 -12 -37 -27 -53
l-28 -30 31 18 c30 17 32 17 60 -1 l28 -19 -69 -5 c-101 -7 -207 0 -202 14 5
16 88 20 99 4 6 -8 7 0 3 24 -3 21 -18 50 -32 65 -14 16 -23 22 -18 14 4 -8 2
-17 -6 -22 -11 -6 -8 -9 8 -9 36 0 34 -15 -2 -16 -19 0 -33 4 -32 10 1 7 -22
12 -57 14 l-59 3 6 42 c3 24 9 51 13 60 8 22 -15 23 -42 1 -16 -13 -16 -15 -1
-10 15 5 17 -2 17 -54 l0 -60 -157 -2 c-284 -3 -364 -6 -371 -13 -4 -4 89 -4
207 0 178 6 213 5 209 -6 -3 -10 -21 -13 -64 -11 -53 2 -96 -9 -84 -22 5 -5
109 -9 125 -5 6 1 43 3 82 3 43 1 72 5 70 11 -1 6 -28 10 -59 10 -43 0 -58 3
-58 14 0 11 16 13 93 6 50 -4 115 -7 144 -6 28 1 54 -3 58 -8 4 -7 -12 -11
-45 -11 -42 0 -53 -3 -57 -19 -4 -14 -18 -20 -60 -25 -36 -4 -60 -2 -69 5 -11
9 -14 9 -14 0 0 -8 -11 -10 -35 -5 -19 3 -35 2 -35 -3 0 -5 15 -10 33 -11 17
-2 34 -7 35 -12 2 -6 13 -10 23 -10 11 0 17 5 14 10 -4 6 8 11 27 11 66 3 202
-1 206 -6 3 -3 -43 -5 -101 -5 -100 0 -107 -1 -107 -20 0 -16 7 -20 32 -20 34
0 29 14 -7 23 -11 3 26 5 83 6 102 1 103 1 100 -21 -3 -22 -7 -23 -105 -23
-100 0 -103 -1 -103 -22 0 -23 -2 -23 -112 -22 -62 0 -122 4 -133 9 -17 7 -17
9 -2 9 9 1 17 6 17 11 0 6 -8 10 -17 11 -15 0 -15 2 2 9 17 7 17 9 3 9 -22 1
-24 21 -3 21 8 0 15 5 15 11 0 5 5 7 12 3 7 -4 8 -3 4 4 -7 12 16 17 59 12 20
-2 20 -2 0 14 -11 8 -27 15 -35 16 -13 0 -13 -1 0 -10 12 -8 11 -10 -7 -10
-30 0 -54 -11 -47 -21 3 -5 -2 -9 -10 -9 -9 0 -16 5 -16 11 0 5 -5 7 -11 3 -8
-4 -8 -9 0 -17 6 -6 11 -26 11 -44 0 -29 -3 -33 -25 -33 -34 0 -36 40 -2 41
21 0 21 1 2 9 -33 14 -35 12 -35 -30 l0 -40 -60 0 -60 0 0 50 c0 41 -3 50 -17
49 -11 0 -13 -3 -5 -6 7 -3 11 -21 11 -46 l-2 -42 -7 40 -7 40 -3 -40 c-2 -40
-3 -40 -10 12 -4 29 -11 64 -14 78 -6 25 -6 25 63 25 38 0 73 -4 76 -10 3 -5
12 -10 18 -10 7 0 6 4 -3 10 -11 7 -5 10 23 10 20 0 37 5 37 11 0 7 -10 9 -26
5 -16 -4 -32 -2 -42 6 -12 10 -14 10 -8 1 5 -10 -13 -13 -81 -13 -63 0 -84 3
-73 11 13 9 13 10 0 8 -8 -1 -26 2 -40 8 -14 6 -32 13 -40 16 -14 5 23 11 58
10 10 -1 13 12 11 43 -2 24 0 46 4 50 4 4 2 13 -3 20 -8 8 -6 17 5 28 15 15
15 16 -2 17 -16 0 -16 1 2 9 16 7 17 9 3 9 -34 2 -26 17 9 18 25 1 32 -2 22
-8 -9 -6 -10 -9 -2 -9 6 0 15 5 18 10 3 6 18 10 33 9 l27 -1 -25 -9 c-22 -8
-21 -8 8 -4 18 3 31 1 28 -3 -2 -4 90 -6 205 -4 130 2 215 -1 226 -7 14 -8 -2
-10 -61 -11 -98 0 -94 -12 5 -14 82 -1 102 11 70 43 -12 12 -21 18 -21 14 0
-5 -95 -8 -211 -8 -191 0 -212 2 -224 18 -7 10 -15 14 -16 8 -6 -15 -140 -20
-169 -6 -20 9 -35 9 -72 -2z m1039 -320 c2 -6 -29 -10 -72 -11 -41 -1 -75 3
-75 8 0 12 23 15 89 14 30 -1 57 -6 58 -11z m-1855 -1 c-18 -12 -129 -15 -136
-4 -3 5 29 10 72 11 47 1 72 -2 64 -7z m716 -49 l-2 -58 -3 50 c-3 27 -10 53
-16 57 -8 5 -6 8 6 8 14 0 17 -9 15 -57z m-788 7 c0 -13 -7 -20 -20 -20 -13 0
-20 7 -20 20 0 13 7 20 20 20 13 0 20 -7 20 -20z m80 0 c0 -16 -7 -20 -35 -20
-28 0 -35 4 -35 20 0 16 7 20 35 20 28 0 35 -4 35 -20z m1770 -3 c0 -20 -4
-23 -35 -19 -26 3 -35 9 -35 23 0 15 7 19 35 19 30 0 35 -3 35 -23z m50 3 c0
-13 -7 -20 -20 -20 -13 0 -20 7 -20 20 0 13 7 20 20 20 13 0 20 -7 20 -20z
m-1820 -40 c0 -5 -16 -10 -35 -10 -19 0 -35 5 -35 10 0 6 16 10 35 10 19 0 35
-4 35 -10z m120 0 c0 -5 -25 -9 -55 -9 -30 1 -55 5 -55 10 0 5 25 9 55 9 30 0
55 -4 55 -10z m1570 0 c0 -6 -40 -9 -100 -7 -55 1 -100 5 -100 10 0 4 45 7
100 7 59 0 100 -4 100 -10z m130 -1 c0 -5 -27 -9 -61 -9 -33 0 -58 4 -55 8 7
11 116 12 116 1z m-1924 -100 c22 -18 16 -35 -14 -37 -19 -1 -30 4 -37 19 -11
23 -27 28 -33 10 -2 -6 3 -11 12 -11 9 0 16 -4 16 -8 0 -5 -20 -10 -45 -10
-51 -2 -61 16 -22 43 24 18 99 14 123 -6z m171 11 l51 0 -4 -42 c-2 -24 -1
-34 2 -23 4 11 11 23 18 27 7 5 7 8 -3 8 -11 0 -11 3 -1 15 7 8 18 15 24 15 6
0 4 -5 -4 -10 -10 -6 -11 -10 -2 -10 8 0 12 -16 12 -45 l0 -45 -75 0 -75 0 -1
43 c-1 23 -1 45 0 50 0 4 -21 7 -48 7 -28 0 -53 5 -57 11 -5 8 10 10 52 6 32
-4 82 -6 111 -7z m1869 -12 c28 -28 8 -36 -81 -34 l-85 2 0 -33 c0 -31 -2 -33
-36 -33 l-35 0 3 43 3 42 42 0 c23 0 45 3 49 8 4 4 -18 7 -49 7 l-57 0 0 -50
0 -50 -75 0 -75 0 0 44 c0 36 4 45 23 52 33 12 129 19 249 19 86 0 110 -3 124
-17z m-907 -4 c2 -2 -79 -3 -180 -2 -107 0 -163 4 -134 8 51 6 306 2 314 -6z
m501 -56 l0 -73 -136 3 c-91 2 -139 0 -144 -8 -4 -7 -13 -3 -25 10 -18 19 -18
20 2 20 18 0 21 6 20 48 l0 47 131 0 c71 0 130 2 130 5 -1 13 3 20 12 20 6 0
10 -31 10 -72z m-1546 46 c11 -4 16 -19 16 -45 0 -38 -1 -39 -35 -39 -35 0
-35 0 -35 45 0 47 12 55 54 39z m1238 -13 c-1 -7 3 -19 9 -27 9 -11 9 -14 -1
-14 -7 0 -10 -7 -6 -15 3 -8 1 -15 -4 -15 -6 0 -10 17 -10 38 l0 37 -80 -3
c-74 -3 -80 -5 -81 -25 -1 -18 -2 -19 -6 -4 -10 40 2 45 94 44 68 -2 87 -5 85
-16z m-192 -26 l0 -35 -180 0 -180 0 0 35 0 35 180 0 180 0 0 -35z m170 -10
c0 -24 -2 -25 -64 -25 -35 0 -71 -3 -80 -6 -9 -3 -16 -1 -16 5 0 6 10 11 23
12 12 0 16 3 10 6 -7 2 -13 11 -13 19 0 11 16 14 70 14 68 0 70 -1 70 -25z
m-1420 -24 c0 -34 -3 -38 -25 -38 -22 0 -25 4 -25 38 0 35 3 39 25 39 22 0 25
-4 25 -39z m110 -1 c0 -33 -3 -40 -20 -40 -16 0 -20 7 -20 35 0 19 -4 35 -10
35 -5 0 -6 -7 -3 -17 4 -10 2 -14 -5 -9 -6 4 -12 -3 -14 -16 -6 -41 -28 -33
-28 11 l0 41 50 0 50 0 0 -40z m30 0 c0 -22 -4 -40 -10 -40 -5 0 -10 18 -10
40 0 22 5 40 10 40 6 0 10 -18 10 -40z m1880 0 c0 -22 -4 -40 -10 -40 -5 0
-10 18 -10 40 0 22 5 40 10 40 6 0 10 -18 10 -40z m40 6 c0 -19 6 -37 13 -39
6 -3 0 -6 -15 -6 -26 -1 -28 2 -28 39 0 29 4 40 15 40 10 0 15 -10 15 -34z
m70 -10 c0 -40 3 -45 25 -48 14 -2 25 -7 25 -13 0 -6 -45 -10 -115 -10 -81 0
-115 -3 -115 -12 0 -8 -25 -10 -86 -7 -48 2 -89 6 -92 8 -2 3 -6 19 -8 36 l-4
30 78 -2 c47 -1 60 -3 35 -5 -32 -3 -43 -8 -43 -21 0 -14 2 -14 9 -3 6 9 20
12 42 9 39 -6 68 1 50 11 -6 4 5 7 24 7 22 0 35 -5 35 -13 0 -9 18 -13 64 -13
62 0 63 0 58 25 -2 14 -8 28 -13 31 -5 3 -8 0 -7 -7 2 -6 -3 -14 -9 -16 -9 -3
-13 6 -13 26 0 28 3 31 30 31 29 0 30 -2 30 -44z m60 4 c0 -36 -2 -40 -25 -40
-22 0 -25 4 -25 40 0 36 3 40 25 40 23 0 25 -4 25 -40z m-770 -20 c0 -6 -26
-10 -59 -10 -33 0 -63 5 -66 10 -4 6 18 10 59 10 37 0 66 -4 66 -10z m-1233
-12 c15 -7 31 -17 35 -23 5 -6 8 -5 8 3 0 7 14 12 35 12 21 0 35 -5 36 -12 0
-10 2 -10 6 0 2 6 17 13 31 13 27 1 27 1 -3 9 -30 8 -30 8 8 9 37 1 38 0 35
-31 -3 -33 -3 -33 -73 -41 -47 -6 -75 -5 -87 2 -13 8 -18 8 -18 0 0 -8 -4 -8
-14 0 -9 8 -60 13 -134 14 -95 2 -118 5 -110 15 7 8 42 12 109 12 81 0 99 3
99 15 0 18 2 18 37 3z m596 -25 c-18 -2 -48 -2 -65 0 -18 2 -4 4 32 4 36 0 50
-2 33 -4z m1412 -43 c-3 -5 3 -10 14 -10 21 0 37 -17 26 -28 -12 -13 -289 -11
-297 2 -14 20 -8 26 25 27 27 0 29 2 12 9 -13 5 25 9 103 9 80 1 121 -3 117
-9z"/>
<path d="M683 1354 c3 -3 2 -17 -3 -30 -9 -22 -7 -24 20 -24 25 0 30 4 30 24
0 13 -7 27 -16 30 -20 8 -39 8 -31 0z"/>
<path d="M2272 1331 c-11 -30 -10 -31 17 -31 23 0 30 5 33 25 3 14 2 25 -3 25
-4 0 -14 3 -22 6 -10 3 -18 -5 -25 -25z"/>
<path d="M1943 1343 c-14 -3 -23 -12 -23 -23 0 -11 9 -20 23 -23 l22 -4 -22
-2 c-14 0 -23 -7 -23 -17 0 -13 3 -14 15 -4 8 6 19 9 25 5 6 -4 9 9 8 34 -1
23 -2 40 -2 40 -1 -1 -11 -4 -23 -6z"/>
<path d="M1990 1335 c0 -9 9 -15 25 -15 16 0 25 6 25 15 0 9 -9 15 -25 15 -16
0 -25 -6 -25 -15z"/>
<path d="M2070 1330 c-17 -10 -4 -30 20 -30 25 0 33 27 10 33 -10 2 -23 1 -30
-3z"/>
<path d="M2060 1280 c0 -5 14 -10 30 -10 17 0 30 5 30 10 0 6 -13 10 -30 10
-16 0 -30 -4 -30 -10z"/>
<path d="M1503 1293 c26 -2 67 -2 90 0 23 2 2 3 -48 3 -49 0 -68 -1 -42 -3z"/>
<path d="M1750 1312 c0 -5 20 -10 45 -10 25 -1 45 2 45 6 0 5 -20 9 -45 11
-25 1 -45 -2 -45 -7z"/>
<path d="M1279 1865 c-11 -11 -205 -13 -351 -5 -47 3 -84 1 -81 -3 3 -5 -5
-11 -16 -14 -35 -9 -18 -28 27 -31 23 -2 42 -7 42 -12 0 -5 -13 -7 -30 -5 -27
3 -29 2 -19 -16 15 -29 19 -93 5 -101 -7 -5 -4 -8 7 -8 16 0 18 7 16 50 -2 27
0 53 4 56 7 7 11 -10 8 -31 -1 -5 5 -1 14 9 11 15 17 17 29 7 8 -7 17 -8 20
-3 7 13 -4 22 -26 22 -10 0 -18 7 -18 16 0 12 6 15 23 11 12 -4 29 -2 37 3 10
7 -10 10 -63 10 -46 0 -76 4 -72 9 8 13 391 14 415 1 12 -7 21 -7 25 0 3 5 -2
10 -12 11 -16 0 -16 1 2 9 11 5 31 8 45 8 l25 0 -25 -8 c-23 -7 -23 -8 -3 -9
12 -1 25 4 28 9 3 6 15 10 26 10 10 0 19 3 19 8 0 11 -89 9 -101 -3z"/>
<path d="M1860 1819 c-93 -4 -102 -5 -45 -8 39 -1 89 -3 113 -5 24 -1 46 2 49
6 8 13 8 13 -117 7z"/>
<path d="M1024 1813 c4 -4 23 -6 42 -4 23 2 34 -2 34 -11 0 -11 2 -11 9 0 6
10 26 13 70 10 33 -1 61 0 61 5 0 4 -50 7 -112 7 -61 0 -108 -3 -104 -7z"/>
<path d="M1310 1804 c-18 -10 -20 -14 -8 -14 9 0 20 5 23 10 3 6 11 10 18 10
6 0 1 -7 -11 -16 -13 -9 -19 -20 -15 -27 4 -7 6 -20 5 -29 -2 -10 5 -18 20
-21 13 -3 5 -4 -17 -4 -38 2 -40 3 -39 34 1 23 -4 33 -17 36 -11 3 -19 1 -19
-4 0 -5 5 -9 10 -9 16 0 12 -60 -5 -66 -29 -12 -15 -22 17 -13 18 5 47 9 65 9
30 0 32 2 27 33 -2 17 -6 43 -8 56 -3 30 -13 33 -46 15z"/>
<path d="M1484 1812 c-6 -4 -11 -29 -13 -57 -2 -49 -2 -50 26 -50 27 0 29 3
31 39 2 57 -17 87 -44 68z"/>
<path d="M1640 1801 c-5 -11 -10 -38 -10 -60 0 -39 1 -41 31 -41 16 0 28 4 25
9 -3 5 -16 7 -29 5 l-22 -5 23 17 c25 19 29 62 6 71 -13 5 -13 7 -2 14 9 6 9
9 1 9 -7 0 -17 -9 -23 -19z"/>
<path d="M1716 1803 c-15 -4 -16 -7 -5 -14 10 -6 10 -9 2 -9 -14 0 -19 -76 -5
-83 19 -11 84 -18 77 -8 -3 6 -1 11 4 11 6 0 11 14 11 30 0 17 -5 30 -12 30
-9 0 -8 3 2 10 10 6 11 12 5 19 -7 6 -17 5 -29 -5 -11 -8 -14 -14 -8 -14 8 0
12 -16 11 -42 0 -24 -3 -38 -5 -31 -3 7 -12 9 -21 6 -13 -5 -15 2 -11 50 3 32
4 56 4 56 -1 -1 -10 -4 -20 -6z"/>
<path d="M1054 1789 c-4 -7 -7 -29 -8 -50 -1 -34 2 -39 22 -39 17 0 22 6 22
25 0 14 -6 25 -12 25 -9 0 -9 3 1 9 8 5 11 16 8 25 -7 19 -23 21 -33 5z"/>
<path d="M1126 1793 c-3 -3 -6 -12 -6 -20 0 -15 36 -18 45 -4 7 12 -29 33 -39
24z"/>
<path d="M1840 1785 c-10 -12 -9 -16 5 -21 13 -5 14 -9 4 -15 -20 -12 -19 -49
2 -49 13 0 18 10 21 45 3 47 -11 65 -32 40z"/>
<path d="M1907 1786 c-18 -14 -17 -15 4 -21 17 -6 19 -9 8 -17 -11 -8 -11 -11
-1 -15 10 -4 9 -8 -4 -18 -16 -11 -15 -13 10 -17 27 -5 27 -5 24 45 -3 54 -13
64 -41 43z"/>
<path d="M1190 1786 c0 -3 7 -12 16 -20 8 -9 11 -16 5 -16 -6 0 -11 -13 -11
-30 0 -19 5 -30 14 -30 10 0 15 15 18 50 3 46 1 50 -19 50 -13 0 -23 -2 -23
-4z"/>
<path d="M2046 1774 c-11 -29 -6 -44 14 -44 16 0 20 7 20 30 0 32 -23 42 -34
14z"/>
<path d="M2192 1757 l-22 -24 30 5 c25 4 30 1 30 -16 0 -16 -8 -22 -32 -25
l-33 -4 32 -1 c34 -2 65 30 42 43 -6 4 -14 16 -18 26 -6 19 -8 19 -29 -4z"/>
<path d="M972 1730 c2 -24 7 -30 25 -30 19 0 23 5 23 30 0 25 -4 30 -25 30
-22 0 -25 -4 -23 -30z"/>
<path d="M1974 1738 c3 -13 6 -26 6 -30 0 -12 40 -9 40 2 0 6 -7 10 -15 10 -8
0 -15 5 -15 10 0 6 6 10 14 10 8 0 18 5 21 10 4 6 -7 10 -26 10 -28 0 -31 -3
-25 -22z"/>
<path d="M1440 1716 c0 -9 -7 -12 -20 -9 -16 4 -20 0 -20 -18 0 -21 5 -24 41
-26 22 -2 37 1 34 7 -3 5 12 11 32 13 l38 4 -42 1 c-23 1 -43 -2 -45 -6 -1 -5
-14 -5 -28 -1 -24 7 -24 7 -2 8 15 1 22 7 22 21 0 11 -2 20 -5 20 -3 0 -5 -6
-5 -14z"/>
<path d="M920 1706 c0 -10 9 -16 21 -16 24 0 21 23 -4 28 -10 2 -17 -3 -17
-12z"/>
<path d="M2040 1696 c0 -23 4 -26 33 -25 l32 1 -30 8 c-26 6 -27 8 -7 9 29 1
24 25 -6 29 -18 3 -22 -2 -22 -22z"/>
<path d="M856 1615 c-5 -14 6 -16 84 -13 116 4 120 23 6 26 -68 2 -85 -1 -90
-13z"/>
<path d="M1047 1624 c-17 -17 -3 -24 48 -24 41 0 53 3 49 13 -5 14 -85 23 -97
11z"/>
<path d="M1640 1568 c0 -10 5 -18 11 -18 5 0 7 5 4 10 -3 6 4 10 17 10 13 0
29 4 37 9 10 6 1 9 -27 8 -33 -2 -42 -6 -42 -19z"/>
<path d="M1240 1560 c-8 -5 -31 -10 -50 -10 -28 -1 -32 -3 -18 -11 12 -7 28
-5 54 6 20 8 41 12 47 8 6 -3 7 -1 3 5 -9 14 -16 15 -36 2z"/>
<path d="M1991 1536 c-7 -8 -8 -17 -3 -20 5 -3 7 -17 4 -31 -4 -22 -1 -25 22
-25 21 0 26 5 26 24 0 28 -24 51 -41 40 -8 -4 -9 -3 -5 5 4 7 17 9 29 6 17 -5
19 -4 7 4 -20 14 -25 14 -39 -3z"/>
<path d="M1236 1524 c-10 -26 4 -62 22 -60 12 2 18 14 20 39 3 31 0 37 -16 37
-11 0 -23 -7 -26 -16z"/>
<path d="M1727 1533 c-4 -3 -7 -19 -7 -35 0 -39 35 -40 43 -1 3 16 3 31 0 35
-5 10 -27 10 -36 1z"/>
<path d="M1429 1430 c-28 -22 -28 -22 71 -22 103 1 98 0 71 22 -16 14 -38 20
-71 20 -33 0 -55 -6 -71 -20z m131 0 c10 -7 -8 -10 -60 -10 -52 0 -70 3 -60
10 8 5 35 10 60 10 25 0 52 -5 60 -10z"/>
<path d="M1830 1413 c0 -17 13 -18 167 -14 93 2 160 6 151 8 -10 3 -18 9 -18
14 0 5 -65 9 -150 9 -136 0 -150 -2 -150 -17z"/>
<path d="M1220 1359 c28 -5 48 -5 54 1 7 7 -9 10 -44 9 l-55 -1 45 -9z"/>
<path d="M908 1343 c-25 -6 -23 -43 2 -43 11 0 20 3 21 8 0 4 2 15 4 25 3 17
2 18 -27 10z"/>
<path d="M1053 1343 c-33 -6 -31 -43 2 -43 14 0 25 4 25 9 0 5 -10 7 -22 5
l-23 -5 23 12 c12 7 22 16 22 21 0 4 -1 7 -2 7 -2 -1 -13 -4 -25 -6z"/>
<path d="M1104 1182 c-4 -14 -14 -16 -52 -13 -46 3 -47 3 -29 -16 18 -21 24
-58 7 -48 -5 3 -10 1 -10 -4 0 -6 7 -11 15 -11 8 0 15 -4 15 -10 0 -5 -16 -10
-37 -10 -20 0 -34 3 -30 6 10 10 -20 34 -42 34 -12 0 -26 -9 -33 -20 -7 -11
-24 -20 -37 -20 -21 0 -23 3 -17 31 3 17 6 36 6 41 0 5 3 7 8 4 4 -2 18 2 31
9 22 11 21 12 -25 13 l-49 2 3 -40 c3 -30 0 -41 -13 -46 -37 -15 13 -24 128
-24 l117 0 -2 43 c-2 23 -7 45 -13 49 -5 4 0 8 11 8 19 0 22 -6 22 -42 1 -65
4 -69 12 -13 l7 50 3 -50 3 -50 6 45 c6 48 0 44 86 41 19 -1 25 -6 25 -23 0
-19 -2 -20 -10 -8 -8 12 -10 11 -10 -7 0 -13 -1 -26 -2 -30 -1 -5 6 -9 15 -11
14 -3 17 5 17 42 0 42 2 46 24 46 13 0 27 -6 29 -12 3 -8 6 -6 6 5 1 14 10 17
53 17 28 0 48 3 44 7 -7 7 -86 6 -128 -3 -20 -4 -27 -1 -31 13 -4 16 -5 17 -6
1 -1 -15 -11 -18 -57 -18 -51 0 -55 2 -49 20 3 11 3 20 0 20 -4 0 -9 -8 -11
-18z"/>
<path d="M1947 1188 c-6 -4 24 -8 67 -8 44 0 76 3 72 8 -10 10 -123 10 -139 0z"/>
<path d="M1415 1173 c-19 -14 -18 -15 15 -9 l35 5 -32 -11 c-26 -9 -33 -16
-33 -37 0 -18 3 -22 9 -13 7 11 13 9 30 -10 l22 -23 -4 30 c-2 17 0 38 4 47
14 26 -20 41 -46 21z"/>
<path d="M1487 1183 c-14 -13 -6 -23 19 -23 22 0 25 2 14 15 -14 16 -23 19
-33 8z"/>
<path d="M1890 1175 c0 -18 -86 -20 -189 -5 -39 5 -71 5 -80 0 -12 -7 -6 -9
22 -10 l37 0 0 -45 c0 -43 -1 -45 -30 -45 -38 0 -39 17 -2 23 l27 4 -27 2
c-33 1 -37 18 -6 23 35 5 34 28 -1 28 -30 0 -31 -1 -31 -45 0 -45 0 -45 35
-45 34 0 35 -1 35 -37 -1 -31 -3 -35 -11 -20 -6 10 -22 17 -39 17 -22 0 -30
-5 -30 -17 0 -15 8 -18 43 -17 23 1 59 2 79 3 29 1 36 4 32 16 -4 9 -19 15
-35 15 l-29 0 0 71 c0 53 3 68 12 62 7 -4 25 -6 40 -4 27 2 28 1 28 -43 0 -37
3 -46 18 -46 14 0 17 7 14 40 -4 40 -4 40 32 40 49 0 51 -1 53 -30 3 -52 6
-53 13 -5 l7 50 1 -47 2 -47 130 -3 c143 -3 145 -2 134 58 -7 38 -23 46 -26
12 0 -13 -1 -30 -2 -38 -2 -25 -44 -24 -65 1 -14 17 -24 20 -44 15 -15 -3 -27
-13 -27 -21 0 -10 -10 -15 -30 -15 -32 0 -41 16 -12 23 16 4 16 5 0 6 -38 2
-10 57 32 64 14 2 1 5 -27 6 -29 0 -53 6 -53 11 0 6 -7 10 -15 10 -8 0 -15 -7
-15 -15z m52 -60 c-2 -25 -8 -45 -13 -45 -14 0 -11 78 4 83 6 3 12 6 12 6 0 1
-1 -19 -3 -44z"/>
<path d="M1547 1173 c-4 -3 -7 -24 -7 -45 0 -36 1 -38 33 -38 22 0 28 3 18 9
-8 5 -20 7 -28 4 -7 -3 -13 0 -13 6 0 6 9 11 19 11 19 0 31 18 31 46 0 14 -41
20 -53 7z"/>
<path d="M750 1111 c0 -43 0 -44 23 -35 10 4 12 14 8 36 -10 48 -31 47 -31 -1z"/>
<path d="M1311 1066 c-1 -87 -1 -88 22 -82 12 3 32 6 45 6 15 0 22 6 21 18 0
10 -3 12 -6 5 -2 -7 -14 -13 -24 -13 -11 0 -18 4 -14 9 3 6 -4 8 -15 6 -18 -4
-21 0 -16 23 2 15 1 47 -3 72 -8 39 -9 34 -10 -44z"/>
<path d="M1340 1135 c0 -8 4 -15 9 -15 5 0 16 -3 25 -6 11 -4 14 0 13 15 -2
25 -47 31 -47 6z"/>
<path d="M2219 1128 c-1 -10 -2 -24 -3 -30 -1 -7 6 -13 14 -13 9 0 15 11 16
31 2 33 -25 45 -27 12z"/>
<path d="M2287 1110 c-4 -17 0 -20 29 -20 31 0 34 -3 34 -30 0 -16 5 -30 11
-30 7 0 10 12 7 30 l-5 30 154 0 c153 0 153 0 153 -23 0 -13 5 -28 12 -35 9
-9 -34 -12 -194 -12 -206 0 -207 0 -211 23 l-4 22 -2 -23 c-1 -22 -4 -23 -66
-21 -36 1 -68 -1 -72 -4 -3 -4 0 -7 8 -8 8 0 1 -5 -15 -9 -24 -7 -32 -5 -47
13 -14 18 -21 20 -36 11 -10 -6 -19 -19 -21 -28 -3 -14 9 -16 92 -16 81 0 94
2 90 15 -5 13 26 15 244 15 138 0 253 -4 256 -9 3 -5 0 -9 -7 -8 -6 0 -23 -1
-37 -3 -17 -2 -11 -5 20 -10 25 -4 -63 -8 -197 -8 -188 -2 -243 1 -243 11 0 7
-5 5 -10 -5 -9 -14 -31 -17 -162 -17 -83 0 -154 -3 -157 -6 -3 -3 179 -3 404
1 374 6 411 6 424 -9 12 -15 10 -16 -20 -11 -19 3 -39 7 -46 9 -7 2 -15 0 -18
-5 -3 -5 -13 -7 -23 -4 -13 5 -14 4 -4 -4 8 -5 39 -10 70 -11 62 -1 82 -12 64
-34 -7 -8 -9 -16 -6 -20 3 -3 -3 -3 -15 0 -11 3 -18 9 -15 14 3 5 -11 9 -30 9
-20 0 -36 -4 -36 -10 0 -5 5 -10 10 -10 6 0 10 -8 10 -17 0 -16 2 -16 11 -3 8
11 12 12 16 3 2 -7 14 -13 25 -13 15 0 19 -5 15 -19 -3 -13 1 -21 12 -24 9 -3
-21 -5 -66 -6 l-83 -1 0 30 c0 17 5 30 10 30 6 0 10 4 10 10 0 5 -7 7 -15 4
-12 -5 -15 -30 -15 -142 0 -151 8 -177 11 -35 l2 92 70 -2 c69 -2 70 -2 74
-31 3 -23 1 -27 -11 -23 -13 5 -16 -2 -16 -33 l0 -40 -45 0 c-46 0 -54 7 -34
27 14 14 5 43 -13 42 -10 0 -10 -2 0 -6 6 -2 12 -9 12 -14 0 -6 -4 -7 -10 -4
-6 4 -10 -8 -10 -30 0 -36 0 -36 35 -29 23 4 35 2 35 -5 0 -6 -10 -11 -22 -12
-13 0 -17 -3 -10 -6 6 -2 12 -18 12 -34 0 -16 -5 -29 -12 -29 -9 0 -10 -3 -2
-8 6 -4 14 -14 17 -22 3 -8 7 10 8 40 l3 55 6 -70 6 -70 2 68 c2 59 4 67 21
67 26 0 35 17 33 60 -2 27 0 32 8 20 8 -11 10 14 7 87 -2 56 0 100 4 97 4 -2
9 2 12 10 3 8 -9 31 -27 52 -30 35 -32 40 -17 51 14 11 14 12 -4 13 -33 1 -47
15 -52 56 -3 22 -6 40 -8 42 -1 1 -81 4 -176 5 -133 2 -173 5 -171 15 4 21
-45 14 -51 -8z"/>
<path d="M1476 1112 c-3 -6 8 -12 24 -14 19 -3 29 -1 27 6 -5 14 -43 20 -51 8z"/>
<path d="M310 1062 c0 -28 -29 -62 -52 -62 -20 0 -21 -1 -4 -13 16 -12 15 -16
-18 -52 -38 -41 -42 -50 -27 -60 5 -3 12 3 16 14 7 22 78 44 113 34 13 -3 22
-1 22 6 0 7 -4 10 -9 6 -5 -3 -12 -1 -16 4 -4 7 -15 7 -31 1 -14 -6 -32 -10
-41 -10 -13 0 -13 3 -3 15 10 13 53 15 263 15 166 0 248 -3 241 -10 -5 -5 -22
-11 -36 -12 -41 -3 -23 -16 23 -16 23 -1 47 -6 52 -11 8 -8 4 -11 -12 -11 -13
0 -30 -8 -37 -17 -11 -15 -16 -16 -33 -5 -12 6 -33 13 -48 13 -22 2 -19 3 12
9 23 4 -40 8 -152 9 -113 0 -193 -3 -193 -8 0 -5 11 -23 25 -39 14 -17 25 -39
25 -51 0 -20 -5 -21 -82 -20 -46 1 -76 3 -67 6 11 3 15 11 12 24 -5 16 0 19
30 19 34 0 50 18 40 46 -4 13 -43 7 -43 -6 0 -5 -14 -11 -30 -15 l-30 -7 1
-152 c1 -109 -3 -159 -12 -174 -10 -16 -10 -23 0 -35 10 -12 10 -20 -1 -37
-11 -17 -11 -22 2 -30 9 -5 523 -9 1292 -9 1097 0 1278 2 1289 15 9 11 9 17
-1 29 -10 13 -9 19 6 36 17 19 18 21 1 30 -12 7 -17 22 -17 50 0 28 -4 39 -13
36 -6 -2 -11 -16 -10 -31 1 -14 -3 -26 -10 -26 -9 0 -9 -2 -1 -8 7 -4 14 -23
17 -43 5 -41 31 -36 -225 -44 -146 -4 -168 -3 -168 10 0 13 22 15 160 12 88
-1 160 1 160 5 0 9 -14 9 -302 8 -166 0 -198 2 -198 14 0 12 12 14 63 10 142
-11 390 -7 382 6 -4 6 -11 8 -16 5 -5 -4 -9 -2 -9 4 0 5 10 12 23 14 12 2
-196 5 -463 6 l-486 1 0 149 c-1 142 0 150 20 159 19 9 19 9 -6 9 l-28 1 0
-89 c0 -49 -4 -89 -9 -89 -4 0 -8 40 -7 90 l1 89 -45 4 c-27 2 -12 4 37 5 45
1 88 5 97 8 10 4 18 0 22 -10 9 -22 -5 -34 -16 -16 -8 12 -10 10 -10 -9 0 -21
4 -23 35 -19 19 2 35 0 35 -5 0 -5 -20 -7 -45 -4 -49 5 -58 -9 -17 -28 19 -8
22 -19 25 -95 l3 -85 2 92 c2 88 1 92 -20 96 -13 2 -6 5 17 5 31 1 37 -1 25
-9 -13 -9 -13 -10 0 -6 8 2 16 13 18 25 2 12 11 22 20 23 11 0 12 3 5 6 -7 2
-13 12 -13 21 -1 15 -2 15 -11 0 -14 -25 -39 -22 -39 3 0 20 4 21 47 16 26 -3
57 -1 70 4 16 6 22 5 20 -4 -1 -9 37 -12 153 -14 98 -1 156 -6 158 -12 2 -6
16 -10 30 -10 24 2 24 2 5 6 -13 2 -23 11 -23 19 0 11 -28 14 -157 15 -87 0
-153 2 -148 4 6 2 80 6 165 10 183 7 190 7 190 16 0 13 -49 16 -77 4 -16 -7
-76 -13 -133 -14 -58 -1 -153 -4 -212 -7 -73 -4 -108 -2 -108 5 0 17 -507 15
-524 -1 -8 -9 -34 -12 -74 -10 -62 4 -72 15 -28 32 18 7 16 9 -14 9 -19 -1
-29 -3 -22 -6 8 -3 10 -9 3 -16 -13 -17 -295 -7 -313 11 -10 9 19 12 143 14
l154 2 -160 6 c-88 4 -268 9 -400 10 -145 2 -218 6 -185 10 54 7 54 7 12 8
-26 1 -41 6 -37 12 4 6 97 10 247 10 209 0 239 -2 234 -15 -4 -12 4 -15 39
-15 36 0 45 3 45 18 0 14 -2 15 -10 2 -8 -13 -10 -12 -10 3 0 14 -10 17 -64
17 -59 0 -65 2 -69 23 l-4 22 -2 -22 -1 -23 -205 0 c-130 0 -205 4 -205 10 0
6 5 10 10 10 6 0 10 9 10 20 0 11 -4 20 -10 20 -5 0 -10 -8 -10 -18z m1070
-152 c0 -5 -13 -10 -30 -10 -16 0 -30 5 -30 10 0 6 14 10 30 10 17 0 30 -4 30
-10z m223 -2 c-6 -11 -71 -10 -77 1 -3 5 14 8 38 8 24 -1 42 -5 39 -9z m-590
-5 c-34 -2 -93 -2 -130 0 -37 2 -9 3 62 3 72 0 102 -1 68 -3z m-440 -10 c-40
-2 -107 -2 -150 0 -43 1 -10 3 72 3 83 0 118 -2 78 -3z m609 -2 c23 -5 40 -5
47 2 7 7 12 5 17 -6 3 -9 16 -17 28 -16 20 0 20 1 1 9 -13 6 13 9 80 9 55 1
114 3 131 7 21 4 44 -1 71 -15 22 -11 44 -17 48 -13 5 4 6 3 3 -3 -3 -5 -2
-19 3 -30 7 -17 8 -17 8 8 1 15 6 27 11 27 6 0 10 -64 10 -171 0 -117 -3 -170
-11 -167 -7 2 -10 51 -10 136 0 72 -4 132 -8 132 -5 0 -11 9 -14 20 -3 10 -26
29 -51 42 l-47 22 -45 -24 c-25 -13 -50 -34 -55 -48 -5 -13 -9 -79 -9 -148 0
-92 -3 -124 -12 -124 -10 0 -10 -2 -1 -8 6 -4 88 -7 182 -7 119 0 171 -3 171
-11 0 -7 -20 -11 -52 -10 -29 0 -111 -1 -183 -4 l-130 -4 150 -6 c83 -3 152
-2 155 1 10 12 80 -3 80 -18 0 -11 -12 -14 -50 -12 -27 2 -53 0 -56 -4 -4 -4
152 -8 347 -9 l354 -2 -335 -6 c-337 -6 -1791 -1 -1799 6 -2 2 256 4 574 4
318 0 575 3 572 7 -4 3 -242 6 -529 5 -356 -1 -526 2 -535 10 -7 6 -23 8 -36
6 -20 -4 -23 0 -24 28 -1 21 5 35 15 39 12 4 13 8 5 13 -7 4 -10 18 -6 30 4
17 13 22 35 22 27 0 30 -3 26 -25 -3 -14 -1 -25 3 -25 8 0 14 38 10 68 -1 6 6
12 16 12 14 0 18 8 17 36 -1 20 -6 39 -11 42 -6 4 -13 14 -16 22 -3 8 -6 -9
-6 -37 -1 -29 -5 -53 -11 -53 -5 0 -7 -7 -4 -15 5 -12 -2 -15 -27 -14 -33 0
-34 0 -9 11 25 11 25 11 2 15 -17 3 -22 11 -22 33 0 16 6 31 13 33 8 4 7 6 -3
6 -22 1 -23 41 -2 41 15 0 15 2 2 10 -11 7 2 10 43 10 78 0 87 -10 89 -107 l2
-78 6 95 6 95 2 -90 c2 -83 4 -91 22 -91 18 0 20 7 20 84 0 53 4 81 10 77 5
-3 10 -1 10 4 0 6 14 11 30 11 17 0 30 -5 30 -12 0 -9 4 -8 10 2 9 13 10 13
10 0 0 -13 1 -13 10 0 7 10 10 -14 10 -77 0 -92 0 -93 25 -93 14 0 25 -4 25
-10 0 -6 -51 -11 -127 -12 -71 -2 27 -5 217 -8 l345 -5 -357 -3 c-196 -1 -363
-5 -372 -8 -20 -8 -21 -21 -1 -21 8 0 12 4 9 9 -3 4 60 8 140 8 186 0 197 -18
14 -23 -82 -2 -49 -3 85 -4 119 0 217 3 217 7 0 4 -36 7 -80 5 -44 -1 -80 2
-80 7 0 4 87 7 193 6 157 -1 175 -3 97 -8 -99 -6 -66 -13 54 -10 48 1 72 -3
77 -12 7 -10 9 -10 9 0 0 7 14 12 35 12 24 0 35 -5 35 -15 0 -13 -51 -15 -394
-15 -216 1 -397 0 -402 -1 -23 -4 -33 3 -37 24 -3 16 -5 14 -6 -10 -1 -31 -1
-31 55 -35 30 -1 62 1 69 5 17 9 809 2 824 -8 6 -3 11 -1 11 5 0 7 8 9 19 5
11 -3 23 0 27 6 5 9 2 10 -10 6 -13 -5 -17 -2 -14 11 3 13 13 17 46 17 23 0
42 3 42 8 0 4 -7 7 -15 7 -10 0 -15 9 -14 28 l1 27 8 -25 c12 -39 16 0 19 183
1 104 3 117 19 117 11 0 13 -3 5 -8 -7 -4 -9 -12 -5 -17 4 -6 16 -1 29 12 l22
23 -60 0 c-38 0 -58 -4 -54 -10 3 -5 0 -10 -7 -10 -9 0 -9 -3 -2 -8 6 -4 11
-63 13 -149 l3 -143 -134 2 c-128 2 -129 2 -30 5 60 2 102 8 102 14 0 5 -6 9
-12 8 -32 -4 -46 2 -43 19 2 9 5 58 6 107 l3 90 6 -90 6 -90 2 87 c2 73 5 87
20 91 9 3 2 5 -15 6 -20 1 -33 -4 -34 -11 0 -7 -2 -38 -3 -68 -2 -30 -4 -76
-5 -102 l-1 -48 -185 0 c-124 0 -185 4 -185 11 0 5 5 7 10 4 6 -3 10 -1 10 4
0 6 -4 11 -10 11 -5 0 -11 53 -12 127 -2 102 -6 127 -18 131 -12 4 -13 2 -2
-9 6 -7 12 -26 12 -41 l0 -28 -90 0 -90 0 -2 38 -1 37 -4 -37 c-3 -30 -9 -38
-24 -38 -26 0 -28 66 -1 73 9 3 -20 5 -65 6 -48 1 -83 -3 -83 -9 0 -5 -6 -7
-12 -5 -7 2 -26 7 -42 9 -66 11 -30 16 124 16 102 0 176 -5 197 -12 29 -10 35
-10 46 7 8 11 19 15 26 10 21 -13 295 -4 309 10 8 7 42 6 84 -4z m166 -103 c0
-45 -3 -88 -8 -97 -6 -11 -9 17 -10 82 0 53 4 97 8 97 4 0 9 -37 10 -82z
m-833 62 l-30 -8 33 -1 c17 0 32 4 32 9 0 6 5 10 10 10 15 0 12 -70 -2 -71 -7
0 -34 -1 -60 -2 -46 -3 -48 -2 -48 25 0 18 5 28 15 28 8 0 15 5 15 10 0 6 15
9 33 9 l32 -1 -30 -8z m1025 -5 c43 -22 55 -51 51 -124 -2 -44 0 -61 8 -57 6
4 11 0 11 -9 0 -9 -4 -13 -10 -10 -6 4 -10 -12 -10 -42 0 -35 3 -44 10 -33 8
13 10 13 10 -2 0 -22 -43 -30 -135 -26 l-70 3 -1 124 c0 116 1 125 23 152 21
24 33 30 76 38 4 0 21 -6 37 -14z m-1100 -25 c0 -38 -20 -40 -21 -2 l-1 27 -8
-30 -8 -30 -1 33 c-1 26 3 32 19 32 16 0 20 -7 20 -30z m0 -121 c0 -44 -4 -78
-9 -75 -12 8 -14 156 -2 156 7 0 11 -31 11 -81z m154 66 c-4 -8 -1 -15 4 -15
6 0 13 8 15 18 3 9 4 -19 4 -63 l0 -80 -7 60 c-6 58 -14 42 -10 -22 1 -18 -3
-33 -9 -33 -7 0 -11 28 -11 75 0 42 4 75 10 75 5 0 7 -7 4 -15z m56 3 c0 9 21
12 80 11 l80 -2 0 -98 0 -99 -90 0 -90 0 0 103 c0 69 3 97 10 87 7 -11 10 -11
10 -2z m1020 -113 c0 -19 -4 -35 -9 -35 -6 0 -9 16 -8 35 3 46 17 46 17 0z m2
-75 c6 -38 -9 -64 -16 -29 -6 32 -4 59 5 59 3 0 9 -13 11 -30z m-414 -37 c-38
-2 -98 -2 -135 0 -38 2 -7 3 67 3 74 0 105 -1 68 -3z m625 0 c-34 -2 -93 -2
-130 0 -37 2 -9 3 62 3 72 0 102 -1 68 -3z m297 -18 l0 -25 -115 0 c-97 0
-115 2 -115 16 0 13 16 15 110 12 61 -2 110 0 110 4 0 4 -17 9 -37 11 l-38 4
43 1 c39 2 42 0 42 -23z m140 16 c0 -9 -119 -5 -128 4 -3 3 25 5 61 5 37 0 67
-4 67 -9z m280 -1 c0 -6 -43 -10 -110 -10 -67 0 -110 4 -110 10 0 6 43 10 110
10 67 0 110 -4 110 -10z m-1347 -24 c5 -11 -7 -14 -54 -15 -45 0 -59 3 -59 15
0 20 105 20 113 0z m607 -2 c0 -10 -16 -14 -60 -14 -54 0 -70 6 -54 22 3 3 30
6 60 6 38 -1 54 -5 54 -14z m80 1 c0 -10 -11 -15 -35 -15 -24 0 -35 5 -35 15
0 10 11 15 35 15 24 0 35 -5 35 -15z m310 -37 c0 -12 -39 -14 -245 -14 -222 1
-255 3 -241 17 3 2 113 6 245 8 204 3 241 1 241 -11z m110 -7 c0 -5 -22 -9
-50 -9 -27 -1 -50 3 -50 9 0 5 23 9 50 9 28 0 50 -4 50 -9z m428 -27 c-7 -6
-430 -6 -436 1 -3 3 95 5 218 5 123 0 221 -3 218 -6z"/>
<path d="M1170 873 c0 -8 -14 -13 -37 -13 -28 0 -34 -3 -23 -10 10 -6 11 -10
3 -10 -10 0 -13 -31 -13 -121 0 -109 -2 -120 -17 -117 -16 3 -18 18 -20 128
-1 69 -4 126 -7 128 -16 6 -25 0 -19 -14 8 -23 10 -47 12 -156 l1 -98 30 0 30
0 2 93 2 92 6 -95 6 -95 3 120 c2 66 3 126 2 133 -1 7 9 12 24 12 15 0 25 -6
25 -14 0 -17 98 -27 104 -10 3 7 -12 9 -46 6 -37 -3 -49 -2 -44 7 4 6 11 9 17
6 5 -3 26 -3 46 1 l38 7 -30 9 c-16 4 -41 6 -54 3 -15 -4 -27 -1 -32 7 -7 10
-9 10 -9 1z"/>
<path d="M641 833 c1 -36 2 -36 8 -9 3 16 15 33 26 37 17 7 16 8 -7 8 -26 1
-28 -2 -27 -36z"/>
<path d="M831 740 c1 -69 4 -114 6 -100 3 14 10 28 17 32 8 6 8 8 -1 8 -9 0
-13 17 -12 53 0 28 3 46 6 40 2 -7 13 -13 24 -13 17 0 19 -8 19 -69 0 -46 -4
-71 -12 -74 -7 -3 25 -4 71 -3 l83 1 -6 44 c-3 24 -6 59 -6 77 0 19 -3 33 -7
32 -5 -1 -20 4 -35 11 -22 11 -30 11 -47 -1 -32 -23 -71 -12 -72 21 0 23 -1
24 -9 6 -7 -17 -9 -15 -9 11 -1 28 2 31 30 32 18 0 36 5 41 10 6 6 -8 9 -36 8
l-46 -1 1 -125z m151 18 c18 -14 27 -75 14 -96 -4 -6 -25 -12 -47 -12 l-39 0
0 54 c0 34 5 56 13 59 22 9 43 7 59 -5z m11 -125 c-18 -2 -48 -2 -65 0 -18 2
-4 4 32 4 36 0 50 -2 33 -4z"/>
<path d="M914 795 c-17 -13 -16 -13 13 -3 24 9 38 9 60 0 26 -11 27 -11 9 3
-25 19 -57 19 -82 0z"/>
<path d="M1240 710 c0 -45 4 -80 10 -80 5 0 9 35 8 80 0 44 -5 80 -9 80 -5 0
-9 -36 -9 -80z"/>
<path d="M493 722 c-6 -4 -11 -18 -10 -32 0 -14 -3 -33 -7 -42 -7 -15 -3 -18
23 -18 32 0 32 0 29 47 -3 46 -13 59 -35 45z"/>
<path d="M705 704 c0 -28 -6 -49 -15 -55 -12 -9 -12 -10 3 -5 10 3 25 6 33 6
10 0 14 14 14 50 0 41 -3 50 -17 50 -15 0 -18 -9 -18 -46z"/>
<path d="M660 700 c0 -16 5 -30 10 -30 6 0 10 14 10 30 0 17 -4 30 -10 30 -5
0 -10 -13 -10 -30z"/>
<path d="M911 1011 c-16 -29 -15 -31 29 -31 37 0 39 2 31 23 -11 29 -46 34
-60 8z"/>
<path d="M1268 1023 c-9 -2 -19 -11 -22 -19 -4 -10 3 -14 24 -14 23 0 30 4 30
20 0 20 -2 21 -32 13z"/>
<path d="M1020 1009 c0 -5 -4 -7 -10 -4 -6 3 -10 -4 -9 -17 0 -13 3 -17 6 -10
2 6 8 10 11 8 4 -2 30 -5 57 -7 28 -2 53 -8 57 -13 4 -6 8 4 8 22 l0 32 -60 0
c-36 0 -60 -4 -60 -11z"/>
<path d="M1410 1006 c0 -8 13 -16 30 -18 20 -3 30 0 30 9 0 8 12 13 30 13 17
0 30 -4 30 -9 0 -5 -9 -7 -20 -4 -11 3 -20 1 -20 -4 0 -6 12 -9 28 -8 15 1 37
3 50 3 12 1 22 9 22 17 0 12 -17 15 -90 15 -70 0 -90 -3 -90 -14z"/>
<path d="M1860 999 c0 -16 -4 -19 -17 -14 -10 4 -31 9 -48 11 -29 3 -29 3 3
-5 55 -15 49 -21 -24 -22 l-69 -2 60 -7 c39 -5 65 -4 73 3 7 6 49 12 93 15 43
3 79 8 79 13 0 5 -7 6 -15 3 -9 -4 -15 0 -15 10 0 19 -46 22 -53 4 -4 -10 -6
-10 -6 0 -1 7 -14 12 -31 12 -24 0 -30 -4 -30 -21z"/>
<path d="M409 987 c4 -4 52 -6 107 -5 l99 3 -107 5 c-59 3 -104 1 -99 -3z"/>
<path d="M1163 993 c-22 -8 -14 -32 13 -39 14 -4 49 -2 77 3 l52 10 -74 2
c-77 1 -86 8 -29 21 l33 8 -30 0 c-16 0 -36 -2 -42 -5z"/>
<path d="M2458 983 c28 -2 76 -2 105 0 28 2 5 3 -53 3 -58 0 -81 -1 -52 -3z"/>
<path d="M1468 953 c23 -2 59 -2 80 0 20 2 1 4 -43 4 -44 0 -61 -2 -37 -4z"/>
<path d="M2310 900 c31 -7 32 -7 8 -9 -16 0 -28 -4 -28 -8 0 -5 81 -8 180 -8
165 0 180 1 180 18 0 15 -12 17 -127 15 l-128 -2 125 -6 125 -6 -147 -2 c-94
-1 -148 2 -148 8 0 6 -17 9 -37 9 l-38 -2 35 -7z"/>
<path d="M1914 872 c5 -8 -4 -12 -26 -13 -18 0 -28 -2 -23 -5 6 -2 9 -54 7
-133 l-3 -130 33 -4 c19 -2 6 -4 -29 -5 l-63 -2 0 105 c0 70 -4 105 -11 105
-7 0 -10 -29 -7 -90 3 -89 3 -89 -22 -93 -24 -4 -24 -4 3 -6 15 0 27 -6 27
-12 0 -7 -10 -9 -25 -7 -14 3 -28 1 -31 -3 -3 -5 190 -8 438 -7 244 2 345 4
226 5 l-218 3 0 99 0 98 80 2 c59 1 80 -2 80 -11 0 -9 3 -9 10 2 7 10 10 -16
10 -82 0 -85 2 -97 16 -91 13 5 13 7 2 14 -9 6 -6 9 10 9 16 0 21 -4 16 -12
-5 -9 -4 -10 4 -3 7 6 12 53 13 119 1 126 7 136 71 136 31 0 39 -3 28 -10 -13
-8 -13 -10 2 -10 15 0 18 -14 21 -117 l3 -118 1 133 1 132 -84 0 -84 0 0 -37
c0 -41 9 -41 12 0 2 20 8 27 23 26 11 0 14 -3 8 -6 -7 -2 -13 -18 -13 -34 0
-19 -5 -29 -15 -29 -11 0 -15 -18 -18 -82 -3 -79 -3 -77 -7 32 -2 63 -5 100
-7 83 l-4 -33 -90 0 -89 0 0 30 c0 17 7 33 17 39 13 7 1 9 -40 8 -31 -1 -57
-5 -57 -10 0 -4 5 -5 10 -2 6 4 11 -14 12 -47 l2 -53 3 48 c3 39 8 47 24 47
18 0 19 -8 19 -120 0 -66 -4 -120 -9 -120 -5 0 -9 50 -9 111 0 60 -3 113 -6
116 -6 6 -10 -126 -6 -194 1 -18 -3 -33 -9 -33 -6 0 -11 -4 -11 -9 0 -5 11 -8
25 -5 14 2 25 0 25 -6 0 -6 -45 -10 -119 -10 l-118 0 -2 135 c-2 152 -9 140
89 148 26 3 15 4 -26 4 -39 0 -77 4 -84 8 -9 5 -11 4 -6 -3z m16 -147 l0 -125
-27 1 c-16 0 -22 3 -15 6 8 3 12 30 12 86 0 57 -3 77 -10 67 -5 -8 -10 -10
-10 -4 0 5 5 15 12 22 7 7 8 12 2 12 -6 0 -9 13 -6 30 3 21 10 30 23 30 18 0
19 -9 19 -125z m489 -20 c1 -47 -2 -75 -8 -75 -7 0 -11 29 -11 75 0 41 4 75 9
75 4 0 9 -34 10 -75z"/>
<path d="M2330 855 c0 -8 5 -15 11 -15 6 0 17 7 25 15 14 13 13 15 -10 15 -16
0 -26 -6 -26 -15z"/>
<path d="M2574 730 c-1 -72 2 -130 6 -130 5 0 9 59 9 130 1 72 -2 130 -6 130
-5 0 -9 -59 -9 -130z"/>
<path d="M2660 810 c-20 -6 -16 -8 23 -9 30 -1 46 3 42 9 -7 11 -29 11 -65 0z"/>
<path d="M1989 789 c-17 -17 -19 -28 -14 -67 3 -26 1 -60 -3 -77 l-9 -30 76 0
76 0 -5 69 c-4 56 -10 71 -29 87 -26 21 -53 18 -85 -10 -18 -15 -19 -15 -13 2
4 10 7 20 7 22 0 11 71 15 91 5 23 -11 23 -10 5 4 -28 22 -72 20 -97 -5z m82
-29 c14 -8 19 -21 19 -54 0 -37 -4 -45 -22 -50 -32 -8 -68 -7 -69 2 -5 50 -3
70 10 89 18 25 33 28 62 13z m7 -127 c-15 -2 -42 -2 -60 0 -18 2 -6 4 27 4 33
0 48 -2 33 -4z"/>
<path d="M1754 705 c0 -49 1 -71 3 -48 2 23 2 64 0 90 -2 26 -3 8 -3 -42z"/>
<path d="M2240 708 l5 -63 3 57 3 57 37 4 c35 3 35 4 -8 5 l-45 2 5 -62z"/>
<path d="M2673 715 c0 -33 2 -45 4 -27 2 18 2 45 0 60 -2 15 -4 0 -4 -33z"/>
<path d="M2260 695 c0 -46 3 -55 18 -55 14 0 17 9 17 55 0 46 -3 55 -17 55
-15 0 -18 -9 -18 -55z"/>
<path d="M2327 703 c4 -22 2 -25 -6 -13 -9 12 -11 9 -11 -13 0 -25 2 -27 15
-13 16 16 21 66 6 66 -4 0 -6 -12 -4 -27z"/>
<path d="M2472 683 c-2 -53 -2 -53 28 -53 27 0 30 3 30 34 0 44 -9 66 -26 66
-18 0 -19 -76 -1 -83 7 -3 5 -6 -5 -6 -13 -1 -18 10 -21 47 l-3 47 -2 -52z"/>
<path d="M170 390 c0 -20 8 -20 1123 -23 l1122 -2 -1147 -3 -1148 -2 0 -25 c0
-20 -5 -25 -25 -25 -21 0 -25 -5 -25 -30 0 -27 -3 -30 -30 -30 -22 0 -30 -5
-30 -18 0 -18 35 -19 913 -25 501 -3 926 -4 942 -3 17 2 276 4 578 5 540 1
547 1 547 21 0 16 -7 20 -30 20 -26 0 -30 3 -30 29 l0 29 -1396 0 c-767 0
-1398 3 -1401 6 -4 3 98 6 225 6 161 0 231 3 234 11 3 8 254 11 923 11 506 -1
922 -1 925 -2 3 0 -2 -5 -10 -10 -10 -6 64 -10 218 -10 225 0 232 1 232 20 0
19 -7 20 -232 22 l-233 3 208 2 c199 3 207 4 207 23 0 20 -11 20 -1330 20
-1322 0 -1330 0 -1330 -20z m550 0 c0 -6 -103 -9 -270 -10 -173 0 -270 4 -270
10 0 6 97 10 270 10 167 0 270 -4 270 -10z m280 1 c0 -5 -60 -9 -135 -9 -75 0
-135 4 -135 9 0 5 60 9 135 9 75 0 135 -4 135 -9z m1803 -1 c-29 -12 -1793
-12 -1793 0 0 6 350 9 908 9 523 0 898 -4 885 -9z m-2523 -50 c0 -6 -30 -10
-72 -9 -50 0 -67 3 -53 9 28 12 125 12 125 0z m300 2 c0 -4 -22 -9 -50 -10
-27 -1 -50 2 -50 7 0 5 23 9 50 9 28 1 50 -2 50 -6z m2056 1 c-11 -11 -76 -13
-76 -2 0 5 19 9 42 9 23 0 38 -3 34 -7z m234 -5 c0 -5 -49 -8 -110 -8 -60 0
-110 4 -110 8 0 5 49 8 110 8 60 -1 110 -4 110 -8z m35 -49 c11 -4 -620 -8
-1403 -8 -784 -1 -1421 3 -1418 8 7 10 2794 11 2821 0z m11 -30 c3 -5 -629 -9
-1415 -9 -802 0 -1421 4 -1421 9 0 11 2829 11 2836 0z m64 -29 c0 -6 -561 -10
-1470 -10 -927 0 -1470 3 -1470 9 0 6 543 10 1470 10 909 0 1470 -4 1470 -9z"/>
<path d="M1313 323 c103 -2 271 -2 375 0 103 1 18 2 -188 2 -206 0 -291 -1
-187 -2z"/>
</g>
</svg>
